<svg width="77" height="48" viewBox="0 0 77 48" fill="none" xmlns="http://www.w3.org/2000/svg">
<path d="M43.9713 21.8367L60.53 7.17365C64.9665 3.24509 70.6874 1.07617 76.6133 1.07617V47.6823H43.9713V21.8367Z" fill="#82C2FF"/>
<path d="M32.5298 21.8367L16.0176 7.16441C11.6038 3.24246 5.9045 1.07617 0 1.07617V47.6823H32.5298V21.8367Z" fill="#82C2FF"/>
<path d="M22.494 22.3294C26.5059 17.8076 32.2617 15.2197 38.3066 15.2197V15.2197C44.3516 15.2197 50.1074 17.8076 54.1193 22.3294L76.6133 47.6824H0L22.494 22.3294Z" fill="url(#paint0_linear_25_2299)"/>
<path d="M62.8512 14.1956C48.4119 25.4166 28.2014 25.4166 13.7621 14.1956L-1.45286e-06 3.50089V-0.0013357H76.6133V3.50089L62.8512 14.1956Z" fill="url(#paint1_linear_25_2299)"/>
<defs>
<linearGradient id="paint0_linear_25_2299" x1="38.3066" y1="15.2197" x2="38.3066" y2="47.6824" gradientUnits="userSpaceOnUse">
<stop stop-color="#65B4FF"/>
<stop offset="1" stop-color="#A9D5FF"/>
</linearGradient>
<linearGradient id="paint1_linear_25_2299" x1="38.3066" y1="26.6342" x2="38.3066" y2="6.46429" gradientUnits="userSpaceOnUse">
<stop stop-color="#A9D5FF"/>
<stop offset="1" stop-color="#88C5FF"/>
</linearGradient>
</defs>
</svg>
