<svg width="77" height="49" viewBox="0 0 77 49" fill="none" xmlns="http://www.w3.org/2000/svg">
<path d="M32.694 22.6667L16.0936 7.89291C11.661 3.948 5.93385 1.76855 0 1.76855V48.6838H32.694V22.6667Z" fill="#D5F259"/>
<path d="M44.1933 22.6667L60.8404 7.90222C65.2958 3.95065 71.0447 1.76855 77 1.76855V48.6838H44.1933V22.6667Z" fill="#D5F259"/>
<path d="M22.6131 23.1564C26.6414 18.6091 32.4251 16.0059 38.5 16.0059V16.0059C44.5749 16.0059 50.3586 18.6091 54.3868 23.1564L77 48.6838H0L22.6131 23.1564Z" fill="url(#paint0_linear_56_698)"/>
<path d="M63.0687 15.052C48.62 26.298 28.3801 26.298 13.9313 15.052L1.32695e-05 4.20873V0.683279H77V4.20873L63.0687 15.052Z" fill="url(#paint1_linear_56_698)"/>
<defs>
<linearGradient id="paint0_linear_56_698" x1="38.5" y1="16.0059" x2="38.5" y2="48.6838" gradientUnits="userSpaceOnUse">
<stop stop-color="#BAE40C"/>
<stop offset="1" stop-color="#E0F87D"/>
</linearGradient>
<linearGradient id="paint1_linear_56_698" x1="38.5" y1="27.4955" x2="38.5" y2="7.19179" gradientUnits="userSpaceOnUse">
<stop stop-color="#DDF869"/>
<stop offset="1" stop-color="#DAF65D"/>
</linearGradient>
</defs>
</svg>
