<svg width="685" height="346" viewBox="0 0 685 346" fill="none" xmlns="http://www.w3.org/2000/svg">
<path d="M17.7627 0H2V346H292V154.124L136.727 39.2285C102.296 13.7509 60.5951 0 17.7627 0Z" fill="#82C2FF"/>
<path d="M668.773 0H685V346H394V154.124L550.073 39.033C584.456 13.6788 626.053 0 668.773 0Z" fill="#82C2FF"/>
<rect width="683" height="346" fill="#82C2FF"/>
<path fill-rule="evenodd" clip-rule="evenodd" d="M618.602 36H610.598C610.492 40.6579 606.683 44.4013 602 44.4013C597.317 44.4013 593.508 40.6579 593.402 36H585.398C585.292 40.6579 581.483 44.4013 576.8 44.4013C572.117 44.4013 568.308 40.6579 568.202 36H560.198C560.092 40.6579 556.283 44.4013 551.6 44.4013C546.917 44.4013 543.108 40.6579 543.002 36H533V51.6031C537.657 51.7096 541.4 55.5181 541.4 60.2008C541.4 64.8835 537.657 68.692 533 68.7985V76.8029C537.657 76.9094 541.4 80.7179 541.4 85.4006C541.4 90.0833 537.657 93.8918 533 93.9983V102.003C537.657 102.11 541.4 105.918 541.4 110.601C541.4 115.283 537.657 119.092 533 119.198V127.203C537.657 127.309 541.4 131.118 541.4 135.8C541.4 140.483 537.657 144.292 533 144.398V152.403C537.657 152.51 541.4 156.318 541.4 161.001C541.4 165.683 537.657 169.492 533 169.598V185.2H543.002C543 185.134 543 185.067 543 185.001C543 180.251 546.85 176.401 551.6 176.401C556.349 176.401 560.2 180.251 560.2 185.001C560.2 185.067 560.199 185.134 560.197 185.2H568.202C568.2 185.134 568.2 185.067 568.2 185.001C568.2 180.251 572.05 176.401 576.8 176.401C581.549 176.401 585.4 180.251 585.4 185.001C585.4 185.067 585.399 185.134 585.397 185.2H593.402C593.4 185.134 593.4 185.067 593.4 185.001C593.4 180.251 597.25 176.401 602 176.401C606.749 176.401 610.6 180.251 610.6 185.001C610.6 185.067 610.599 185.134 610.597 185.2H618.602C618.6 185.134 618.6 185.067 618.6 185.001C618.6 180.251 622.45 176.401 627.2 176.401C631.949 176.401 635.8 180.251 635.8 185.001C635.8 185.067 635.799 185.134 635.797 185.2H645.8V169.598C645.733 169.6 645.667 169.601 645.6 169.601C640.85 169.601 637 165.75 637 161.001C637 156.251 640.85 152.401 645.6 152.401C645.667 152.401 645.733 152.402 645.8 152.403V144.398C645.767 144.399 645.733 144.4 645.7 144.4L645.667 144.4L645.6 144.4C640.85 144.4 637 140.55 637 135.8C637 131.051 640.85 127.2 645.6 127.2C645.667 127.2 645.733 127.201 645.8 127.203V119.198C645.733 119.2 645.667 119.201 645.6 119.201C640.85 119.201 637 115.35 637 110.601C637 105.851 640.85 102.001 645.6 102.001L645.646 102.001L645.673 102.001C645.715 102.001 645.758 102.002 645.8 102.003V93.9983C645.733 93.9998 645.667 94.0006 645.6 94.0006C640.85 94.0006 637 90.1502 637 85.4006C637 80.6509 640.85 76.8006 645.6 76.8006C645.667 76.8006 645.733 76.8014 645.8 76.8029V68.7985C645.733 68.8 645.667 68.8008 645.6 68.8008C640.85 68.8008 637 64.9504 637 60.2008C637 55.4511 640.85 51.6008 645.6 51.6008C645.667 51.6008 645.733 51.6015 645.8 51.6031V36H635.798C635.692 40.6579 631.883 44.4013 627.2 44.4013C622.517 44.4013 618.708 40.6579 618.602 36Z" fill="white"/>
<rect x="553.8" y="60.7998" width="71.2" height="100" fill="#D9D9D9"/>
<path d="M440 77.5C452.299 84.6689 484.101 94.7054 512.916 77.5C541.731 60.2946 570.312 70.3311 581 77.5" stroke="black" stroke-width="3"/>
<path d="M440 101.5C452.299 108.669 484.101 118.705 512.916 101.5C541.731 84.2946 570.312 94.3311 581 101.5" stroke="black" stroke-width="3"/>
<path d="M440 130.5C452.299 137.669 484.101 147.705 512.916 130.5C541.731 113.295 570.312 123.331 581 130.5" stroke="black" stroke-width="3"/>
<path d="M278.742 278.716C275.83 278.716 273.87 277.316 273.058 275.944V285.128H270.174V262.308H273.058V264.688C273.87 263.316 275.83 261.916 278.742 261.916C283.278 261.916 286.666 265.528 286.666 270.316C286.666 275.104 283.278 278.716 278.742 278.716ZM278.49 276.168C281.71 276.168 283.838 273.648 283.838 270.316C283.838 266.984 281.71 264.464 278.49 264.464C275.242 264.464 273.002 266.984 273.002 270.316C273.002 273.648 275.242 276.168 278.49 276.168ZM290.354 262.308H293.238V264.772C293.938 263.568 295.87 261.916 299.006 261.916C299.986 261.916 300.63 262 301.19 262.196V264.94C300.574 264.66 299.79 264.492 298.81 264.492C295.534 264.492 293.238 267.124 293.238 270.036V278.324H290.354V262.308ZM310.57 261.916C315.302 261.916 318.746 265.5 318.746 270.316C318.746 275.132 315.302 278.716 310.57 278.716C305.81 278.716 302.366 275.132 302.366 270.316C302.366 265.5 305.81 261.916 310.57 261.916ZM310.57 264.464C307.378 264.464 305.194 266.984 305.194 270.316C305.194 273.648 307.378 276.168 310.57 276.168C313.734 276.168 315.918 273.648 315.918 270.316C315.918 266.984 313.734 264.464 310.57 264.464ZM329.973 262.308V264.856H326.417V278.324H323.533V264.856H320.369V262.308H323.533V259.592C323.533 256.932 325.073 255.084 327.817 255.084C328.517 255.084 329.189 255.14 329.693 255.252V257.688C329.301 257.604 328.741 257.604 328.321 257.604C327.145 257.604 326.417 258.36 326.417 259.676V262.308H329.973ZM339.441 278.716C334.765 278.716 331.405 275.132 331.405 270.316C331.405 265.5 334.765 261.916 339.441 261.916C344.117 261.916 347.449 265.5 347.449 270.316C347.449 270.68 347.449 271.1 347.393 271.492H334.289C334.597 274.236 336.585 276.28 339.441 276.28C341.625 276.28 343.333 275.272 343.921 273.956H346.861C345.993 276.728 343.109 278.716 339.441 278.716ZM344.621 269.14C344.285 266.34 342.325 264.352 339.441 264.352C336.557 264.352 334.597 266.368 334.289 269.14H344.621ZM357.412 261.916C361.332 261.916 364.272 263.848 364.412 266.564H361.584C361.472 265.22 359.652 264.268 357.328 264.268C355.004 264.268 353.324 265.192 353.324 266.396C353.324 267.712 354.332 268.524 358.252 269.056C363.068 269.7 364.776 271.268 364.776 273.76C364.776 276.868 361.5 278.716 357.524 278.716C353.24 278.716 350.496 276.644 350.3 273.844H353.128C353.296 275.104 354.752 276.364 357.608 276.364C360.072 276.364 361.948 275.356 361.948 273.928C361.948 272.612 360.716 271.856 356.88 271.352C352.512 270.764 350.496 269.364 350.496 266.564C350.496 263.736 353.492 261.916 357.412 261.916ZM374.72 261.916C378.64 261.916 381.58 263.848 381.72 266.564H378.892C378.78 265.22 376.96 264.268 374.636 264.268C372.312 264.268 370.632 265.192 370.632 266.396C370.632 267.712 371.64 268.524 375.56 269.056C380.376 269.7 382.084 271.268 382.084 273.76C382.084 276.868 378.808 278.716 374.832 278.716C370.548 278.716 367.804 276.644 367.608 273.844H370.436C370.604 275.104 372.06 276.364 374.916 276.364C377.38 276.364 379.256 275.356 379.256 273.928C379.256 272.612 378.024 271.856 374.188 271.352C369.82 270.764 367.804 269.364 367.804 266.564C367.804 263.736 370.8 261.916 374.72 261.916ZM393.093 261.916C397.825 261.916 401.269 265.5 401.269 270.316C401.269 275.132 397.825 278.716 393.093 278.716C388.333 278.716 384.889 275.132 384.889 270.316C384.889 265.5 388.333 261.916 393.093 261.916ZM393.093 264.464C389.901 264.464 387.717 266.984 387.717 270.316C387.717 273.648 389.901 276.168 393.093 276.168C396.257 276.168 398.441 273.648 398.441 270.316C398.441 266.984 396.257 264.464 393.093 264.464ZM404.952 262.308H407.836V264.772C408.536 263.568 410.468 261.916 413.604 261.916C414.584 261.916 415.228 262 415.788 262.196V264.94C415.172 264.66 414.388 264.492 413.408 264.492C410.132 264.492 407.836 267.124 407.836 270.036V278.324H404.952V262.308ZM430.299 281.208C422.431 281.208 417.307 275.524 417.307 268.3C417.307 261.356 422.431 255.448 430.383 255.448C438.447 255.448 443.123 260.852 443.123 267.32C443.123 272.08 440.743 275.3 437.355 275.3C435.591 275.3 434.331 274.068 433.967 272.556L433.911 272.332C433.295 273.424 431.783 274.656 429.515 274.656C425.987 274.656 423.467 271.996 423.467 268.412C423.467 264.772 425.987 262.028 429.515 262.028C431.559 262.028 432.931 263.092 433.463 264.072V262.392H436.235V270.652C436.235 272.108 436.711 272.948 437.775 272.948C439.343 272.948 440.351 270.82 440.351 267.376C440.351 261.888 436.627 257.828 430.383 257.828C424.251 257.828 420.079 262.364 420.079 268.3C420.079 274.32 424.195 278.828 430.299 278.828C433.687 278.828 436.151 278.1 437.999 276.588V278.856C436.291 280.424 433.435 281.208 430.299 281.208ZM429.795 272.304C431.923 272.304 433.491 270.624 433.491 268.384C433.491 266.116 431.923 264.408 429.795 264.408C427.723 264.408 426.239 266.116 426.239 268.384C426.239 270.624 427.723 272.304 429.795 272.304ZM452.623 261.916C456.543 261.916 459.483 263.848 459.623 266.564H456.795C456.683 265.22 454.863 264.268 452.539 264.268C450.215 264.268 448.535 265.192 448.535 266.396C448.535 267.712 449.543 268.524 453.463 269.056C458.279 269.7 459.987 271.268 459.987 273.76C459.987 276.868 456.711 278.716 452.735 278.716C448.451 278.716 445.707 276.644 445.511 273.844H448.339C448.507 275.104 449.963 276.364 452.819 276.364C455.283 276.364 457.159 275.356 457.159 273.928C457.159 272.612 455.927 271.856 452.091 271.352C447.723 270.764 445.707 269.364 445.707 266.564C445.707 263.736 448.703 261.916 452.623 261.916ZM465.059 254.916C466.179 254.916 466.991 255.728 466.991 256.82C466.991 257.912 466.179 258.724 465.059 258.724C463.967 258.724 463.155 257.912 463.155 256.82C463.155 255.728 463.967 254.916 465.059 254.916ZM466.515 278.352H463.631V262.308H466.515V278.352ZM471.041 262.308H473.925V264.744C474.597 263.568 476.417 261.916 479.357 261.916C483.137 261.916 485.797 264.632 485.797 268.944V278.324H482.913V269.448C482.913 266.2 481.345 264.436 478.741 264.436C475.941 264.436 473.925 267.068 473.925 270.036V278.324H471.041V262.308ZM504.805 272.892C503.937 276.364 500.997 278.716 497.273 278.716C492.513 278.716 489.041 275.132 489.041 270.316C489.041 265.5 492.485 261.916 497.217 261.916C500.997 261.916 503.965 264.352 504.749 267.684H501.809C501.165 265.78 499.485 264.464 497.217 264.464C494.025 264.464 491.869 266.984 491.869 270.316C491.869 273.648 494.025 276.168 497.217 276.168C499.485 276.168 501.221 274.824 501.865 272.892H504.805ZM508.338 255.196H511.222V264.744C511.894 263.568 513.714 261.916 516.654 261.916C520.434 261.916 523.094 264.632 523.094 268.944V278.324H520.21V269.448C520.21 266.2 518.642 264.436 516.038 264.436C513.238 264.436 511.222 267.068 511.222 270.036V278.324H508.338V255.196ZM534.624 261.916C539.356 261.916 542.8 265.5 542.8 270.316C542.8 275.132 539.356 278.716 534.624 278.716C529.864 278.716 526.42 275.132 526.42 270.316C526.42 265.5 529.864 261.916 534.624 261.916ZM534.624 264.464C531.432 264.464 529.248 266.984 529.248 270.316C529.248 273.648 531.432 276.168 534.624 276.168C537.788 276.168 539.972 273.648 539.972 270.316C539.972 266.984 537.788 264.464 534.624 264.464ZM546.483 262.308H549.367V264.744C550.039 263.568 551.859 261.916 554.799 261.916C558.579 261.916 561.239 264.632 561.239 268.944V278.324H558.355V269.448C558.355 266.2 556.787 264.436 554.183 264.436C551.383 264.436 549.367 267.068 549.367 270.036V278.324H546.483V262.308ZM566.667 278.688C565.547 278.688 564.679 277.82 564.679 276.7C564.679 275.58 565.547 274.712 566.667 274.712C567.787 274.712 568.627 275.58 568.627 276.7C568.627 277.82 567.787 278.688 566.667 278.688ZM579.598 278.716C575.062 278.716 571.674 275.104 571.674 270.316C571.674 265.528 575.062 261.916 579.598 261.916C582.51 261.916 584.47 263.316 585.282 264.688V262.308H588.166V278.324H585.282V275.944C584.47 277.316 582.51 278.716 579.598 278.716ZM579.85 276.168C583.098 276.168 585.338 273.648 585.338 270.316C585.338 266.984 583.098 264.464 579.85 264.464C576.63 264.464 574.502 266.984 574.502 270.316C574.502 273.648 576.63 276.168 579.85 276.168ZM607.618 272.892C606.75 276.364 603.81 278.716 600.086 278.716C595.326 278.716 591.854 275.132 591.854 270.316C591.854 265.5 595.298 261.916 600.03 261.916C603.81 261.916 606.778 264.352 607.562 267.684H604.622C603.978 265.78 602.298 264.464 600.03 264.464C596.838 264.464 594.682 266.984 594.682 270.316C594.682 273.648 596.838 276.168 600.03 276.168C602.298 276.168 604.034 274.824 604.678 272.892H607.618ZM612.495 278.688C611.375 278.688 610.507 277.82 610.507 276.7C610.507 275.58 611.375 274.712 612.495 274.712C613.615 274.712 614.455 275.58 614.455 276.7C614.455 277.82 613.615 278.688 612.495 278.688ZM629.682 278.324L624.222 270.988L621.058 274.32V278.324H618.174V255.196H621.058V270.876L629.038 262.308H632.426L626.042 269.056L633.098 278.324H629.682ZM635.569 262.308H638.453V264.772C639.153 263.568 641.085 261.916 644.221 261.916C645.201 261.916 645.845 262 646.405 262.196V264.94C645.789 264.66 645.005 264.492 644.025 264.492C640.749 264.492 638.453 267.124 638.453 270.036V278.324H635.569V262.308Z" fill="black"/>
</svg>
