<svg width="504" height="223" viewBox="0 0 504 223" fill="none" xmlns="http://www.w3.org/2000/svg">
<path d="M147.694 190.983L131.094 176.209C126.661 172.264 120.934 170.085 115 170.085V217H147.694V190.983Z" fill="#D5F259"/>
<path d="M159.193 190.983L175.84 176.219C180.296 172.267 186.045 170.085 192 170.085V217H159.193V190.983Z" fill="#D5F259"/>
<path d="M137.613 191.473C141.641 186.925 147.425 184.322 153.5 184.322C159.575 184.322 165.359 186.925 169.387 191.473L192 217H115L137.613 191.473Z" fill="url(#paint0_linear_41_3233)"/>
<path d="M178.069 183.368C163.62 194.614 143.38 194.614 128.931 183.368L115 172.525V169H192V172.525L178.069 183.368Z" fill="url(#paint1_linear_41_3233)"/>
<path d="M386.974 192.867L371.661 176.762C367.572 172.462 362.047 169.813 356.133 169.319L352.227 216.072L384.808 218.794L386.974 192.867Z" fill="#D5F259"/>
<path d="M398.433 193.825L416.252 180.497C421.021 176.931 426.931 175.235 432.866 175.73L428.96 222.483L396.267 219.751L398.433 193.825Z" fill="#D5F259"/>
<path d="M376.887 192.516C381.28 188.32 387.261 186.207 393.314 186.713V186.713C399.368 187.219 404.915 190.295 408.551 195.162L428.96 222.483L352.227 216.072L376.887 192.516Z" fill="url(#paint2_linear_41_3233)"/>
<path d="M417.877 187.808C402.542 197.812 382.373 196.127 368.91 183.717L355.93 171.752L356.224 168.238L432.956 174.649L432.663 178.162L417.877 187.808Z" fill="url(#paint3_linear_41_3233)"/>
<path d="M218.063 186.838L198.854 172.624C193.108 168.372 186.148 166.077 179 166.077V212.683H218.063V186.838Z" fill="#82C2FF"/>
<path d="M231.802 186.838L251.066 172.632C256.84 168.374 263.826 166.077 271 166.077V212.683H231.802V186.838Z" fill="#82C2FF"/>
<path d="M205.264 188.032C210.611 183.014 217.668 180.221 225 180.221V180.221C232.332 180.221 239.389 183.014 244.736 188.032L271 212.683H179L205.264 188.032Z" fill="url(#paint4_linear_41_3233)"/>
<path d="M246.732 184.207C233.508 192.765 216.492 192.765 203.268 184.207L179 168.502V165H271V168.502L246.732 184.207Z" fill="url(#paint5_linear_41_3233)"/>
<path d="M179.063 169.838L159.854 155.624C154.108 151.372 147.148 149.077 140 149.077V195.683H179.063V169.838Z" fill="#82C2FF"/>
<path d="M192.802 169.838L212.066 155.632C217.84 151.374 224.826 149.077 232 149.077V195.683H192.802V169.838Z" fill="#82C2FF"/>
<path d="M166.264 171.032C171.611 166.014 178.668 163.221 186 163.221C193.332 163.221 200.389 166.014 205.736 171.032L232 195.683H140L166.264 171.032Z" fill="url(#paint6_linear_41_3233)"/>
<path d="M207.732 167.207C194.508 175.765 177.492 175.765 164.268 167.207L140 151.502V148H232V151.502L207.732 167.207Z" fill="url(#paint7_linear_41_3233)"/>
<path d="M161.063 104.838L141.854 90.6242C136.108 86.3721 129.148 84.0771 122 84.0771V130.683H161.063V104.838Z" fill="#82C2FF"/>
<path d="M174.802 104.838L194.066 90.6321C199.84 86.3743 206.826 84.0771 214 84.0771V130.683H174.802V104.838Z" fill="#82C2FF"/>
<path d="M148.264 106.032C153.611 101.014 160.668 98.2207 168 98.2207C175.332 98.2207 182.389 101.014 187.736 106.032L214 130.683H122L148.264 106.032Z" fill="url(#paint8_linear_41_3233)"/>
<path d="M189.732 102.207C176.508 110.765 159.492 110.765 146.268 102.207L122 86.5019V82.9996H214V86.5019L189.732 102.207Z" fill="url(#paint9_linear_41_3233)"/>
<path d="M211.063 135.838L191.854 121.624C186.108 117.372 179.148 115.077 172 115.077V161.683H211.063V135.838Z" fill="#82C2FF"/>
<path d="M224.802 135.838L244.066 121.632C249.84 117.374 256.826 115.077 264 115.077V161.683H224.802V135.838Z" fill="#82C2FF"/>
<path d="M198.264 137.032C203.611 132.014 210.668 129.221 218 129.221C225.332 129.221 232.389 132.014 237.736 137.032L264 161.683H172L198.264 137.032Z" fill="url(#paint10_linear_41_3233)"/>
<path d="M239.732 133.207C226.508 141.765 209.492 141.765 196.268 133.207L172 117.502V114H264V117.502L239.732 133.207Z" fill="url(#paint11_linear_41_3233)"/>
<path d="M231.063 95.8376L211.854 81.6242C206.108 77.3721 199.148 75.0771 192 75.0771V121.683H231.063V95.8376Z" fill="#82C2FF"/>
<path d="M244.802 95.8376L264.066 81.6321C269.84 77.3743 276.826 75.0771 284 75.0771V121.683H244.802V95.8376Z" fill="#82C2FF"/>
<path d="M218.264 97.0317C223.611 92.0137 230.668 89.2207 238 89.2207C245.332 89.2207 252.389 92.0137 257.736 97.0317L284 121.683H192L218.264 97.0317Z" fill="url(#paint12_linear_41_3233)"/>
<path d="M259.732 93.2067C246.508 101.765 229.492 101.765 216.268 93.2067L192 77.5019V73.9996H284V77.5019L259.732 93.2067Z" fill="url(#paint13_linear_41_3233)"/>
<path d="M247.063 21.8376L227.854 7.62417C222.108 3.37209 215.148 1.07715 208 1.07715V47.6833H247.063V21.8376Z" fill="#82C2FF"/>
<path d="M260.802 21.8376L280.066 7.63213C285.84 3.37429 292.826 1.07715 300 1.07715V47.6833H260.802V21.8376Z" fill="#82C2FF"/>
<path d="M234.264 23.0317C239.611 18.0137 246.668 15.2207 254 15.2207C261.332 15.2207 268.389 18.0137 273.736 23.0317L300 47.6834H208L234.264 23.0317Z" fill="url(#paint14_linear_41_3233)"/>
<path d="M275.732 19.2067C262.508 27.7647 245.492 27.7647 232.268 19.2067L208 3.50186V-0.000358582H300V3.50186L275.732 19.2067Z" fill="url(#paint15_linear_41_3233)"/>
<path d="M191.063 45.8376L171.854 31.6242C166.108 27.3721 159.148 25.0771 152 25.0771V71.6833H191.063V45.8376Z" fill="#82C2FF"/>
<path d="M204.802 45.8376L224.066 31.6321C229.84 27.3743 236.826 25.0771 244 25.0771V71.6833H204.802V45.8376Z" fill="#82C2FF"/>
<path d="M178.264 47.0317C183.611 42.0137 190.668 39.2207 198 39.2207C205.332 39.2207 212.389 42.0137 217.736 47.0317L244 71.6834H152L178.264 47.0317Z" fill="url(#paint16_linear_41_3233)"/>
<path d="M219.732 43.2067C206.508 51.7647 189.492 51.7647 176.268 43.2067L152 27.5019V23.9996H244V27.5019L219.732 43.2067Z" fill="url(#paint17_linear_41_3233)"/>
<path d="M138.063 102.838L118.854 88.6242C113.108 84.3721 106.148 82.0771 99 82.0771V128.683H138.063V102.838Z" fill="#82C2FF"/>
<path d="M151.802 102.838L171.066 88.6321C176.84 84.3743 183.826 82.0771 191 82.0771V128.683H151.802V102.838Z" fill="#82C2FF"/>
<path d="M125.264 104.032C130.611 99.0137 137.668 96.2207 145 96.2207V96.2207C152.332 96.2207 159.389 99.0137 164.736 104.032L191 128.683H99L125.264 104.032Z" fill="url(#paint18_linear_41_3233)"/>
<path d="M166.732 100.207C153.508 108.765 136.492 108.765 123.268 100.207L99 84.5019V80.9996H191V84.5019L166.732 100.207Z" fill="url(#paint19_linear_41_3233)"/>
<path d="M85.063 143.838L65.8545 129.624C60.1081 125.372 53.1485 123.077 46 123.077V169.683H85.063V143.838Z" fill="#82C2FF"/>
<path d="M98.8023 143.838L118.066 129.632C123.84 125.374 130.826 123.077 138 123.077V169.683H98.8023V143.838Z" fill="#82C2FF"/>
<path d="M72.2644 145.032C77.6107 140.014 84.6677 137.221 92 137.221C99.3323 137.221 106.389 140.014 111.736 145.032L138 169.683H46L72.2644 145.032Z" fill="url(#paint20_linear_41_3233)"/>
<path d="M113.732 141.207C100.508 149.765 83.4922 149.765 70.2679 141.207L46 125.502V122H138V125.502L113.732 141.207Z" fill="url(#paint21_linear_41_3233)"/>
<path d="M146.063 133.838L126.854 119.624C121.108 115.372 114.148 113.077 107 113.077V159.683H146.063V133.838Z" fill="#82C2FF"/>
<path d="M159.802 133.838L179.066 119.632C184.84 115.374 191.826 113.077 199 113.077V159.683H159.802V133.838Z" fill="#82C2FF"/>
<path d="M133.264 135.032C138.611 130.014 145.668 127.221 153 127.221C160.332 127.221 167.389 130.014 172.736 135.032L199 159.683H107L133.264 135.032Z" fill="url(#paint22_linear_41_3233)"/>
<path d="M174.732 131.207C161.508 139.765 144.492 139.765 131.268 131.207L107 115.502V112H199V115.502L174.732 131.207Z" fill="url(#paint23_linear_41_3233)"/>
<path d="M99.063 79.8376L79.8545 65.6242C74.1081 61.3721 67.1485 59.0771 60 59.0771V105.683H99.063V79.8376Z" fill="#82C2FF"/>
<path d="M112.802 79.8376L132.066 65.6321C137.84 61.3743 144.826 59.0771 152 59.0771V105.683H112.802V79.8376Z" fill="#82C2FF"/>
<path d="M86.2644 81.0317C91.6107 76.0137 98.6677 73.2207 106 73.2207C113.332 73.2207 120.389 76.0137 125.736 81.0317L152 105.683H60L86.2644 81.0317Z" fill="url(#paint24_linear_41_3233)"/>
<path d="M127.732 77.2067C114.508 85.7647 97.4922 85.7647 84.2679 77.2067L60 61.5019V57.9996H152V61.5019L127.732 77.2067Z" fill="url(#paint25_linear_41_3233)"/>
<path d="M39.063 183.838L19.8545 169.624C14.1081 165.372 7.14848 163.077 0 163.077V209.683H39.063V183.838Z" fill="#82C2FF"/>
<path d="M52.8023 183.838L72.0662 169.632C77.8402 165.374 84.8259 163.077 92 163.077V209.683H52.8023V183.838Z" fill="#82C2FF"/>
<path d="M26.2644 185.032C31.6107 180.014 38.6677 177.221 46 177.221C53.3323 177.221 60.3893 180.014 65.7356 185.032L92 209.683H0L26.2644 185.032Z" fill="url(#paint26_linear_41_3233)"/>
<path d="M67.7321 181.207C54.5078 189.765 37.4922 189.765 24.2679 181.207L0 165.502V162H92V165.502L67.7321 181.207Z" fill="url(#paint27_linear_41_3233)"/>
<path d="M274.164 60.9019L260.327 41.4199C256.188 35.5917 250.287 31.2464 243.493 29.0234L229 73.3189L266.126 85.4661L274.164 60.9019Z" fill="#82C2FF"/>
<path d="M287.222 65.1749L309.948 57.6641C316.76 55.4129 324.113 55.4019 330.932 57.6328L316.439 101.928L279.185 89.7392L287.222 65.1749Z" fill="#82C2FF"/>
<path d="M261.628 58.0579C268.27 54.9512 275.845 54.4911 282.814 56.7712C289.783 59.0513 295.621 63.9003 299.142 70.332L316.439 101.929L229 73.32L261.628 58.0579Z" fill="url(#paint28_linear_41_3233)"/>
<path d="M302.229 67.3175C286.999 71.3389 270.827 66.0476 260.92 53.8016L242.739 31.3289L243.828 28.0004L331.267 56.6091L330.178 59.9377L302.229 67.3175Z" fill="url(#paint29_linear_41_3233)"/>
<path d="M311.063 122.838L291.854 108.624C286.108 104.372 279.148 102.077 272 102.077V148.683H311.063V122.838Z" fill="#82C2FF"/>
<path d="M324.802 122.838L344.066 108.632C349.84 104.374 356.826 102.077 364 102.077V148.683H324.802V122.838Z" fill="#82C2FF"/>
<path d="M298.264 124.032C303.611 119.014 310.668 116.221 318 116.221C325.332 116.221 332.389 119.014 337.736 124.032L364 148.683H272L298.264 124.032Z" fill="url(#paint30_linear_41_3233)"/>
<path d="M339.732 120.207C326.508 128.765 309.492 128.765 296.268 120.207L272 104.502V101H364V104.502L339.732 120.207Z" fill="url(#paint31_linear_41_3233)"/>
<path d="M298.063 168.838L278.854 154.624C273.108 150.372 266.148 148.077 259 148.077V194.683H298.063V168.838Z" fill="#82C2FF"/>
<path d="M311.802 168.838L331.066 154.632C336.84 150.374 343.826 148.077 351 148.077V194.683H311.802V168.838Z" fill="#82C2FF"/>
<path d="M285.264 170.032C290.611 165.014 297.668 162.221 305 162.221C312.332 162.221 319.389 165.014 324.736 170.032L351 194.683H259L285.264 170.032Z" fill="url(#paint32_linear_41_3233)"/>
<path d="M326.732 166.207C313.508 174.765 296.492 174.765 283.268 166.207L259 150.502V147H351V150.502L326.732 166.207Z" fill="url(#paint33_linear_41_3233)"/>
<path d="M345.063 187.838L325.854 173.624C320.108 169.372 313.148 167.077 306 167.077V213.683H345.063V187.838Z" fill="#82C2FF"/>
<path d="M358.802 187.838L378.066 173.632C383.84 169.374 390.826 167.077 398 167.077V213.683H358.802V187.838Z" fill="#82C2FF"/>
<path d="M332.264 189.032C337.611 184.014 344.668 181.221 352 181.221C359.332 181.221 366.389 184.014 371.736 189.032L398 213.683H306L332.264 189.032Z" fill="url(#paint34_linear_41_3233)"/>
<path d="M373.732 185.207C360.508 193.765 343.492 193.765 330.268 185.207L306 169.502V166H398V169.502L373.732 185.207Z" fill="url(#paint35_linear_41_3233)"/>
<path d="M405.063 129.838L385.854 115.624C380.108 111.372 373.148 109.077 366 109.077V155.683H405.063V129.838Z" fill="#82C2FF"/>
<path d="M418.802 129.838L438.066 115.632C443.84 111.374 450.826 109.077 458 109.077V155.683H418.802V129.838Z" fill="#82C2FF"/>
<path d="M392.264 131.032C397.611 126.014 404.668 123.221 412 123.221C419.332 123.221 426.389 126.014 431.736 131.032L458 155.683H366L392.264 131.032Z" fill="url(#paint36_linear_41_3233)"/>
<path d="M433.732 127.207C420.508 135.765 403.492 135.765 390.268 127.207L366 111.502V108H458V111.502L433.732 127.207Z" fill="url(#paint37_linear_41_3233)"/>
<path d="M351.063 62.8376L331.854 48.6242C326.108 44.3721 319.148 42.0771 312 42.0771V88.6833H351.063V62.8376Z" fill="#82C2FF"/>
<path d="M364.802 62.8376L384.066 48.6321C389.84 44.3743 396.826 42.0771 404 42.0771V88.6833H364.802V62.8376Z" fill="#82C2FF"/>
<path d="M338.264 64.0317C343.611 59.0137 350.668 56.2207 358 56.2207C365.332 56.2207 372.389 59.0137 377.736 64.0317L404 88.6834H312L338.264 64.0317Z" fill="url(#paint38_linear_41_3233)"/>
<path d="M379.732 60.2067C366.508 68.7647 349.492 68.7647 336.268 60.2067L312 44.5019V40.9996H404V44.5019L379.732 60.2067Z" fill="url(#paint39_linear_41_3233)"/>
<path d="M324.063 99.8376L304.854 85.6242C299.108 81.3721 292.148 79.0771 285 79.0771V125.683H324.063V99.8376Z" fill="#82C2FF"/>
<path d="M337.802 99.8376L357.066 85.6321C362.84 81.3743 369.826 79.0771 377 79.0771V125.683H337.802V99.8376Z" fill="#82C2FF"/>
<path d="M311.264 101.032C316.611 96.0137 323.668 93.2207 331 93.2207C338.332 93.2207 345.389 96.0137 350.736 101.032L377 125.683H285L311.264 101.032Z" fill="url(#paint40_linear_41_3233)"/>
<path d="M352.732 97.2067C339.508 105.765 322.492 105.765 309.268 97.2067L285 81.5019V77.9996H377V81.5019L352.732 97.2067Z" fill="url(#paint41_linear_41_3233)"/>
<path d="M401.329 105.313L387.759 85.6445C383.7 79.7604 377.859 75.3349 371.096 73.0195L356 117.113L392.957 129.766L401.329 105.313Z" fill="#82C2FF"/>
<path d="M414.327 109.763L437.154 102.563C443.996 100.405 451.349 100.495 458.136 102.818L443.04 146.912L405.956 134.216L414.327 109.763Z" fill="#82C2FF"/>
<path d="M388.833 102.297C395.517 99.2816 403.098 98.9249 410.035 101.3C416.972 103.675 422.744 108.603 426.177 115.082L443.04 146.912L356 117.113L388.833 102.297Z" fill="url(#paint42_linear_41_3233)"/>
<path d="M429.304 112.11C414.021 115.924 397.923 110.412 388.183 98.0322L370.31 75.3136L371.445 72.0002L458.485 101.799L457.351 105.113L429.304 112.11Z" fill="url(#paint43_linear_41_3233)"/>
<path d="M451.063 160.838L431.854 146.624C426.108 142.372 419.148 140.077 412 140.077V186.683H451.063V160.838Z" fill="#82C2FF"/>
<path d="M464.802 160.838L484.066 146.632C489.84 142.374 496.826 140.077 504 140.077V186.683H464.802V160.838Z" fill="#82C2FF"/>
<path d="M438.264 162.032C443.611 157.014 450.668 154.221 458 154.221C465.332 154.221 472.389 157.014 477.736 162.032L504 186.683H412L438.264 162.032Z" fill="url(#paint44_linear_41_3233)"/>
<path d="M479.732 158.207C466.508 166.765 449.492 166.765 436.268 158.207L412 142.502V139H504V142.502L479.732 158.207Z" fill="url(#paint45_linear_41_3233)"/>
<path d="M383.063 170.838L363.854 156.624C358.108 152.372 351.148 150.077 344 150.077V196.683H383.063V170.838Z" fill="#82C2FF"/>
<path d="M396.802 170.838L416.066 156.632C421.84 152.374 428.826 150.077 436 150.077V196.683H396.802V170.838Z" fill="#82C2FF"/>
<path d="M370.264 172.032C375.611 167.014 382.668 164.221 390 164.221C397.332 164.221 404.389 167.014 409.736 172.032L436 196.683H344L370.264 172.032Z" fill="url(#paint46_linear_41_3233)"/>
<path d="M411.732 168.207C398.508 176.765 381.492 176.765 368.268 168.207L344 152.502V149H436V152.502L411.732 168.207Z" fill="url(#paint47_linear_41_3233)"/>
<path d="M451.063 194.838L431.854 180.624C426.108 176.372 419.148 174.077 412 174.077V220.683H451.063V194.838Z" fill="#82C2FF"/>
<path d="M464.802 194.838L484.066 180.632C489.84 176.374 496.826 174.077 504 174.077V220.683H464.802V194.838Z" fill="#82C2FF"/>
<path d="M438.264 196.032C443.611 191.014 450.668 188.221 458 188.221C465.332 188.221 472.389 191.014 477.736 196.032L504 220.683H412L438.264 196.032Z" fill="url(#paint48_linear_41_3233)"/>
<path d="M479.732 192.207C466.508 200.765 449.492 200.765 436.268 192.207L412 176.502V173H504V176.502L479.732 192.207Z" fill="url(#paint49_linear_41_3233)"/>
<path d="M260.805 163.949L251.771 141.827C249.068 135.209 244.313 129.633 238.204 125.921L214 165.75L247.383 186.036L260.805 163.949Z" fill="#82C2FF"/>
<path d="M272.546 171.084L296.386 168.948C303.531 168.308 310.694 169.973 316.825 173.698L292.622 213.527L259.124 193.171L272.546 171.084Z" fill="#82C2FF"/>
<path d="M249.247 158.323C256.422 156.811 263.903 158.089 270.169 161.897C276.435 165.704 281.016 171.756 282.978 178.821L292.621 213.527L214 165.75L249.247 158.323Z" fill="url(#paint50_linear_41_3233)"/>
<path d="M286.671 176.589C270.925 177.034 256.384 168.198 249.527 154.017L236.944 127.993L238.763 125L317.385 172.777L315.566 175.77L286.671 176.589Z" fill="url(#paint51_linear_41_3233)"/>
<path d="M415.829 88.1504L392.003 89.9694C384.876 90.5135 378.111 93.3316 372.705 98.0088L403.199 133.254L432.74 107.696L415.829 88.1504Z" fill="#82C2FF"/>
<path d="M426.22 79.161L431.493 55.8141C433.074 48.8162 436.854 42.5084 442.279 37.8145L472.773 73.0601L443.13 98.7067L426.22 79.161Z" fill="#82C2FF"/>
<path d="M406.932 97.4276C407.692 90.1348 411.201 83.4053 416.746 78.6078C422.291 73.8104 429.456 71.3053 436.782 71.6021L472.773 73.0603L403.199 133.255L406.932 97.4276Z" fill="url(#paint52_linear_41_3233)"/>
<path d="M435.789 67.4037C431.388 82.5281 418.52 93.6612 402.919 95.8418L374.291 99.8433L372 97.1947L441.575 37.0002L443.866 39.6487L435.789 67.4037Z" fill="url(#paint53_linear_41_3233)"/>
<path d="M275.694 88.9831L259.094 74.2093C254.661 70.2644 248.934 68.085 243 68.085V115H275.694V88.9831Z" fill="#D5F259"/>
<path d="M287.193 88.9831L303.84 74.2186C308.296 70.2671 314.045 68.085 320 68.085V115H287.193V88.9831Z" fill="#D5F259"/>
<path d="M265.613 89.4728C269.641 84.9255 275.425 82.3223 281.5 82.3223C287.575 82.3223 293.359 84.9255 297.387 89.4728L320 115H243L265.613 89.4728Z" fill="url(#paint54_linear_41_3233)"/>
<path d="M306.069 81.3684C291.62 92.6145 271.38 92.6144 256.931 81.3684L243 70.5251V66.9997H320V70.5251L306.069 81.3684Z" fill="url(#paint55_linear_41_3233)"/>
<path d="M372.74 79.3625L358.98 61.913C355.305 57.2537 350.048 54.1062 344.205 53.0684L336 99.2605L368.19 104.979L372.74 79.3625Z" fill="#D5F259"/>
<path d="M384.062 81.3735L403.035 69.748C408.113 66.6366 414.155 65.4936 420.018 66.5352L411.813 112.727L379.512 106.99L384.062 81.3735Z" fill="#D5F259"/>
<path d="M362.729 78.0812C367.491 74.3085 373.641 72.7569 379.622 73.8194C385.603 74.8819 390.842 78.4565 394.013 83.6383L411.813 112.727L336 99.2602L362.729 78.0812Z" fill="url(#paint56_linear_41_3233)"/>
<path d="M403.979 77.1778C387.786 85.7235 367.858 82.1836 355.599 68.5839L343.779 55.4712L344.395 52.0001L420.208 65.4671L419.592 68.9382L403.979 77.1778Z" fill="url(#paint57_linear_41_3233)"/>
<path d="M114.858 165.504L94.5288 156.529C89.1004 154.133 82.9809 153.813 77.3326 155.632L91.7113 200.289L122.832 190.269L114.858 165.504Z" fill="#D5F259"/>
<path d="M125.804 161.979L137.125 142.823C140.155 137.696 144.958 133.857 150.627 132.032L165.006 176.69L133.778 186.744L125.804 161.979Z" fill="#D5F259"/>
<path d="M105.412 169.06C107.853 163.496 112.561 159.246 118.343 157.384C124.126 155.522 130.429 156.228 135.657 159.321L165.006 176.69L91.7113 200.289L105.412 169.06Z" fill="url(#paint58_linear_41_3233)"/>
<path d="M141.437 148.946C131.131 164.079 111.865 170.282 94.6647 164.006L78.0805 157.954L77.0001 154.598L150.295 130.999L151.375 134.355L141.437 148.946Z" fill="url(#paint59_linear_41_3233)"/>
<path d="M163.694 119.983L147.094 105.209C142.661 101.264 136.934 99.085 131 99.085V146H163.694V119.983Z" fill="#D5F259"/>
<path d="M175.193 119.983L191.84 105.219C196.296 101.267 202.045 99.085 208 99.085V146H175.193V119.983Z" fill="#D5F259"/>
<path d="M153.613 120.473C157.641 115.925 163.425 113.322 169.5 113.322C175.575 113.322 181.359 115.925 185.387 120.473L208 146H131L153.613 120.473Z" fill="url(#paint60_linear_41_3233)"/>
<path d="M194.069 112.368C179.62 123.614 159.38 123.614 144.931 112.368L131 101.525V97.9997H208V101.525L194.069 112.368Z" fill="url(#paint61_linear_41_3233)"/>
<path d="M234.121 176.61L215.13 165.071C210.059 161.99 204.032 160.879 198.196 161.948L206.653 208.095L238.811 202.201L234.121 176.61Z" fill="#D5F259"/>
<path d="M245.432 174.537L259.145 157.014C262.815 152.324 268.076 149.141 273.934 148.067L282.392 194.214L250.122 200.128L245.432 174.537Z" fill="#D5F259"/>
<path d="M224.294 178.909C227.436 173.71 232.656 170.107 238.631 169.012V169.012C244.607 167.917 250.765 169.435 255.547 173.181L282.392 194.214L206.653 208.095L224.294 178.909Z" fill="url(#paint62_linear_41_3233)"/>
<path d="M262.626 163.645C250.441 177.312 230.533 180.96 214.293 172.503L198.636 164.349L198 160.881L273.738 147.001L274.374 150.468L262.626 163.645Z" fill="url(#paint63_linear_41_3233)"/>
<path d="M355.121 141.61L336.13 130.071C331.058 126.99 325.032 125.879 319.196 126.948L327.653 173.095L359.811 167.201L355.121 141.61Z" fill="#D5F259"/>
<path d="M366.432 139.537L380.145 122.014C383.815 117.324 389.076 114.141 394.934 113.067L403.392 159.214L371.122 165.128L366.432 139.537Z" fill="#D5F259"/>
<path d="M345.294 143.909C348.436 138.71 353.656 135.107 359.631 134.012C365.607 132.917 371.765 134.435 376.547 138.181L403.392 159.214L327.653 173.095L345.294 143.909Z" fill="url(#paint64_linear_41_3233)"/>
<path d="M383.626 128.645C371.441 142.312 351.533 145.96 335.293 137.503L319.636 129.349L319 125.881L394.739 112.001L395.374 115.468L383.626 128.645Z" fill="url(#paint65_linear_41_3233)"/>
<path d="M428.924 174.387L415.693 156.533C412.16 151.765 406.999 148.462 401.191 147.249L391.604 193.174L423.608 199.855L428.924 174.387Z" fill="#D5F259"/>
<path d="M440.181 176.737L459.494 165.686C464.663 162.728 470.736 161.767 476.566 162.983L466.979 208.909L434.865 202.205L440.181 176.737Z" fill="#D5F259"/>
<path d="M418.956 172.806C423.829 169.178 430.022 167.811 435.969 169.053C441.916 170.294 447.045 174.024 450.059 179.299L466.979 208.908L391.604 193.174L418.956 172.806Z" fill="url(#paint66_linear_41_3233)"/>
<path d="M460.214 173.139C443.772 181.195 423.959 177.06 412.114 163.098L400.692 149.637L401.412 146.186L476.788 161.92L476.067 165.371L460.214 173.139Z" fill="url(#paint67_linear_41_3233)"/>
<path d="M288.121 137.61L269.13 126.071C264.059 122.99 258.032 121.879 252.196 122.948L260.653 169.095L292.811 163.201L288.121 137.61Z" fill="#D5F259"/>
<path d="M299.432 135.537L313.145 118.014C316.815 113.324 322.076 110.141 327.934 109.067L336.392 155.214L304.122 161.128L299.432 135.537Z" fill="#D5F259"/>
<path d="M278.294 139.909C281.436 134.71 286.656 131.107 292.631 130.012C298.607 128.917 304.765 130.435 309.547 134.181L336.392 155.214L260.653 169.095L278.294 139.909Z" fill="url(#paint68_linear_41_3233)"/>
<path d="M316.626 124.645C304.441 138.312 284.533 141.96 268.293 133.503L252.636 125.349L252 121.881L327.739 108.001L328.374 111.468L316.626 124.645Z" fill="url(#paint69_linear_41_3233)"/>
<path d="M206.121 60.6103L187.13 49.0711C182.059 45.9899 176.032 44.8785 170.196 45.9482L178.653 92.0949L210.811 86.2012L206.121 60.6103Z" fill="#D5F259"/>
<path d="M217.432 58.5373L231.145 41.0137C234.815 36.3236 240.076 33.1409 245.934 32.0674L254.392 78.214L222.122 84.1281L217.432 58.5373Z" fill="#D5F259"/>
<path d="M196.294 62.9091C199.436 57.7101 204.656 54.1069 210.631 53.0118C216.607 51.9166 222.765 53.4346 227.547 57.1812L254.392 78.214L178.653 92.0948L196.294 62.9091Z" fill="url(#paint70_linear_41_3233)"/>
<path d="M234.626 47.6453C222.441 61.3117 202.533 64.9603 186.293 56.5032L170.636 48.349L170 44.8813L245.738 31.0005L246.374 34.4682L234.626 47.6453Z" fill="url(#paint71_linear_41_3233)"/>
<path d="M178.725 85.6096L155.145 81.7415C148.09 80.5844 140.851 81.7225 134.492 84.9883L155.784 126.446L190.532 108.6L178.725 85.6096Z" fill="#82C2FF"/>
<path d="M190.947 79.3329L201.593 57.8957C204.784 51.4703 209.948 46.2355 216.33 42.958L237.622 84.4162L202.754 102.324L190.947 79.3329Z" fill="#82C2FF"/>
<path d="M167.886 92.5196C170.349 85.6134 175.35 79.9049 181.873 76.5551C188.395 73.2053 195.949 72.4658 202.997 74.4871L237.622 84.4168L155.784 126.447L167.886 92.5196Z" fill="url(#paint72_linear_41_3233)"/>
<path d="M203.025 70.1722C195.172 83.8265 180.035 91.6001 164.362 90.029L135.6 87.1457L134 84.0303L215.838 41.9999L217.438 45.1152L203.025 70.1722Z" fill="url(#paint73_linear_41_3233)"/>
<path d="M301.808 112.928L286.214 94.8223C281.549 89.4058 275.268 85.63 268.296 84.0508L258 129.505L296.098 138.135L301.808 112.928Z" fill="#82C2FF"/>
<path d="M315.208 115.963L337.134 106.364C343.706 103.487 351.026 102.79 358.023 104.375L347.727 149.83L309.498 141.17L315.208 115.963Z" fill="#82C2FF"/>
<path d="M289.062 111.265C295.384 107.552 302.884 106.387 310.035 108.007C317.186 109.627 323.452 113.91 327.557 119.985L347.727 149.83L258 129.505L289.062 111.265Z" fill="url(#paint74_linear_41_3233)"/>
<path d="M330.35 116.696C315.562 122.121 298.966 118.362 287.959 107.094L267.761 86.4155L268.534 82.9999L358.261 103.325L357.488 106.74L330.35 116.696Z" fill="url(#paint75_linear_41_3233)"/>
<path d="M212.808 140.928L197.214 122.822C192.549 117.406 186.268 113.63 179.296 112.051L169 157.505L207.098 166.135L212.808 140.928Z" fill="#82C2FF"/>
<path d="M226.208 143.963L248.134 134.364C254.706 131.487 262.026 130.79 269.023 132.375L258.727 177.83L220.498 169.17L226.208 143.963Z" fill="#82C2FF"/>
<path d="M200.062 139.265C206.384 135.552 213.884 134.387 221.035 136.007C228.186 137.627 234.452 141.91 238.557 147.985L258.727 177.83L169 157.505L200.062 139.265Z" fill="url(#paint76_linear_41_3233)"/>
<path d="M241.35 144.696C226.562 150.121 209.966 146.362 198.959 135.094L178.761 114.416L179.534 111L269.261 131.325L268.488 134.74L241.35 144.696Z" fill="url(#paint77_linear_41_3233)"/>
<path d="M402.063 161.838L382.854 147.624C377.108 143.372 370.148 141.077 363 141.077V187.683H402.063V161.838Z" fill="#82C2FF"/>
<path d="M415.802 161.838L435.066 147.632C440.84 143.374 447.826 141.077 455 141.077V187.683H415.802V161.838Z" fill="#82C2FF"/>
<path d="M389.264 163.032C394.611 158.014 401.668 155.221 409 155.221C416.332 155.221 423.389 158.014 428.736 163.032L455 187.683H363L389.264 163.032Z" fill="url(#paint78_linear_41_3233)"/>
<path d="M430.732 159.207C417.508 167.765 400.492 167.765 387.268 159.207L363 143.502V140H455V143.502L430.732 159.207Z" fill="url(#paint79_linear_41_3233)"/>
<path d="M131.063 183.838L111.854 169.624C106.108 165.372 99.1485 163.077 92 163.077V209.683H131.063V183.838Z" fill="#82C2FF"/>
<path d="M144.802 183.838L164.066 169.632C169.84 165.374 176.826 163.077 184 163.077V209.683H144.802V183.838Z" fill="#82C2FF"/>
<path d="M118.264 185.032C123.611 180.014 130.668 177.221 138 177.221C145.332 177.221 152.389 180.014 157.736 185.032L184 209.683H92L118.264 185.032Z" fill="url(#paint80_linear_41_3233)"/>
<path d="M159.732 181.207C146.508 189.765 129.492 189.765 116.268 181.207L92 165.502V162H184V165.502L159.732 181.207Z" fill="url(#paint81_linear_41_3233)"/>
<defs>
<linearGradient id="paint0_linear_41_3233" x1="153.5" y1="184.322" x2="153.5" y2="217" gradientUnits="userSpaceOnUse">
<stop stop-color="#BAE40C"/>
<stop offset="1" stop-color="#E0F87D"/>
</linearGradient>
<linearGradient id="paint1_linear_41_3233" x1="153.5" y1="195.812" x2="153.5" y2="175.508" gradientUnits="userSpaceOnUse">
<stop stop-color="#DDF869"/>
<stop offset="1" stop-color="#DAF65D"/>
</linearGradient>
<linearGradient id="paint2_linear_41_3233" x1="393.314" y1="186.713" x2="390.594" y2="219.278" gradientUnits="userSpaceOnUse">
<stop stop-color="#BAE40C"/>
<stop offset="1" stop-color="#E0F87D"/>
</linearGradient>
<linearGradient id="paint3_linear_41_3233" x1="392.358" y1="198.163" x2="394.048" y2="177.93" gradientUnits="userSpaceOnUse">
<stop stop-color="#DDF869"/>
<stop offset="1" stop-color="#DAF65D"/>
</linearGradient>
<linearGradient id="paint4_linear_41_3233" x1="225" y1="180.221" x2="225" y2="212.683" gradientUnits="userSpaceOnUse">
<stop stop-color="#65B4FF"/>
<stop offset="1" stop-color="#A9D5FF"/>
</linearGradient>
<linearGradient id="paint5_linear_41_3233" x1="225" y1="191.635" x2="225" y2="171.465" gradientUnits="userSpaceOnUse">
<stop stop-color="#A9D5FF"/>
<stop offset="1" stop-color="#88C5FF"/>
</linearGradient>
<linearGradient id="paint6_linear_41_3233" x1="186" y1="163.221" x2="186" y2="195.683" gradientUnits="userSpaceOnUse">
<stop stop-color="#65B4FF"/>
<stop offset="1" stop-color="#A9D5FF"/>
</linearGradient>
<linearGradient id="paint7_linear_41_3233" x1="186" y1="174.635" x2="186" y2="154.465" gradientUnits="userSpaceOnUse">
<stop stop-color="#A9D5FF"/>
<stop offset="1" stop-color="#88C5FF"/>
</linearGradient>
<linearGradient id="paint8_linear_41_3233" x1="168" y1="98.2207" x2="168" y2="130.683" gradientUnits="userSpaceOnUse">
<stop stop-color="#65B4FF"/>
<stop offset="1" stop-color="#A9D5FF"/>
</linearGradient>
<linearGradient id="paint9_linear_41_3233" x1="168" y1="109.635" x2="168" y2="89.4653" gradientUnits="userSpaceOnUse">
<stop stop-color="#A9D5FF"/>
<stop offset="1" stop-color="#88C5FF"/>
</linearGradient>
<linearGradient id="paint10_linear_41_3233" x1="218" y1="129.221" x2="218" y2="161.683" gradientUnits="userSpaceOnUse">
<stop stop-color="#65B4FF"/>
<stop offset="1" stop-color="#A9D5FF"/>
</linearGradient>
<linearGradient id="paint11_linear_41_3233" x1="218" y1="140.635" x2="218" y2="120.465" gradientUnits="userSpaceOnUse">
<stop stop-color="#A9D5FF"/>
<stop offset="1" stop-color="#88C5FF"/>
</linearGradient>
<linearGradient id="paint12_linear_41_3233" x1="238" y1="89.2207" x2="238" y2="121.683" gradientUnits="userSpaceOnUse">
<stop stop-color="#65B4FF"/>
<stop offset="1" stop-color="#A9D5FF"/>
</linearGradient>
<linearGradient id="paint13_linear_41_3233" x1="238" y1="100.635" x2="238" y2="80.4653" gradientUnits="userSpaceOnUse">
<stop stop-color="#A9D5FF"/>
<stop offset="1" stop-color="#88C5FF"/>
</linearGradient>
<linearGradient id="paint14_linear_41_3233" x1="254" y1="15.2207" x2="254" y2="47.6834" gradientUnits="userSpaceOnUse">
<stop stop-color="#65B4FF"/>
<stop offset="1" stop-color="#A9D5FF"/>
</linearGradient>
<linearGradient id="paint15_linear_41_3233" x1="254" y1="26.6352" x2="254" y2="6.46526" gradientUnits="userSpaceOnUse">
<stop stop-color="#A9D5FF"/>
<stop offset="1" stop-color="#88C5FF"/>
</linearGradient>
<linearGradient id="paint16_linear_41_3233" x1="198" y1="39.2207" x2="198" y2="71.6834" gradientUnits="userSpaceOnUse">
<stop stop-color="#65B4FF"/>
<stop offset="1" stop-color="#A9D5FF"/>
</linearGradient>
<linearGradient id="paint17_linear_41_3233" x1="198" y1="50.6352" x2="198" y2="30.4653" gradientUnits="userSpaceOnUse">
<stop stop-color="#A9D5FF"/>
<stop offset="1" stop-color="#88C5FF"/>
</linearGradient>
<linearGradient id="paint18_linear_41_3233" x1="145" y1="96.2207" x2="145" y2="128.683" gradientUnits="userSpaceOnUse">
<stop stop-color="#65B4FF"/>
<stop offset="1" stop-color="#A9D5FF"/>
</linearGradient>
<linearGradient id="paint19_linear_41_3233" x1="145" y1="107.635" x2="145" y2="87.4653" gradientUnits="userSpaceOnUse">
<stop stop-color="#A9D5FF"/>
<stop offset="1" stop-color="#88C5FF"/>
</linearGradient>
<linearGradient id="paint20_linear_41_3233" x1="92" y1="137.221" x2="92" y2="169.683" gradientUnits="userSpaceOnUse">
<stop stop-color="#65B4FF"/>
<stop offset="1" stop-color="#A9D5FF"/>
</linearGradient>
<linearGradient id="paint21_linear_41_3233" x1="92" y1="148.635" x2="92" y2="128.465" gradientUnits="userSpaceOnUse">
<stop stop-color="#A9D5FF"/>
<stop offset="1" stop-color="#88C5FF"/>
</linearGradient>
<linearGradient id="paint22_linear_41_3233" x1="153" y1="127.221" x2="153" y2="159.683" gradientUnits="userSpaceOnUse">
<stop stop-color="#65B4FF"/>
<stop offset="1" stop-color="#A9D5FF"/>
</linearGradient>
<linearGradient id="paint23_linear_41_3233" x1="153" y1="138.635" x2="153" y2="118.465" gradientUnits="userSpaceOnUse">
<stop stop-color="#A9D5FF"/>
<stop offset="1" stop-color="#88C5FF"/>
</linearGradient>
<linearGradient id="paint24_linear_41_3233" x1="106" y1="73.2207" x2="106" y2="105.683" gradientUnits="userSpaceOnUse">
<stop stop-color="#65B4FF"/>
<stop offset="1" stop-color="#A9D5FF"/>
</linearGradient>
<linearGradient id="paint25_linear_41_3233" x1="106" y1="84.6352" x2="106" y2="64.4653" gradientUnits="userSpaceOnUse">
<stop stop-color="#A9D5FF"/>
<stop offset="1" stop-color="#88C5FF"/>
</linearGradient>
<linearGradient id="paint26_linear_41_3233" x1="46" y1="177.221" x2="46" y2="209.683" gradientUnits="userSpaceOnUse">
<stop stop-color="#65B4FF"/>
<stop offset="1" stop-color="#A9D5FF"/>
</linearGradient>
<linearGradient id="paint27_linear_41_3233" x1="46" y1="188.635" x2="46" y2="168.465" gradientUnits="userSpaceOnUse">
<stop stop-color="#A9D5FF"/>
<stop offset="1" stop-color="#88C5FF"/>
</linearGradient>
<linearGradient id="paint28_linear_41_3233" x1="282.814" y1="56.7712" x2="272.719" y2="87.6244" gradientUnits="userSpaceOnUse">
<stop stop-color="#65B4FF"/>
<stop offset="1" stop-color="#A9D5FF"/>
</linearGradient>
<linearGradient id="paint29_linear_41_3233" x1="279.265" y1="67.6198" x2="285.537" y2="48.4498" gradientUnits="userSpaceOnUse">
<stop stop-color="#A9D5FF"/>
<stop offset="1" stop-color="#88C5FF"/>
</linearGradient>
<linearGradient id="paint30_linear_41_3233" x1="318" y1="116.221" x2="318" y2="148.683" gradientUnits="userSpaceOnUse">
<stop stop-color="#65B4FF"/>
<stop offset="1" stop-color="#A9D5FF"/>
</linearGradient>
<linearGradient id="paint31_linear_41_3233" x1="318" y1="127.635" x2="318" y2="107.465" gradientUnits="userSpaceOnUse">
<stop stop-color="#A9D5FF"/>
<stop offset="1" stop-color="#88C5FF"/>
</linearGradient>
<linearGradient id="paint32_linear_41_3233" x1="305" y1="162.221" x2="305" y2="194.683" gradientUnits="userSpaceOnUse">
<stop stop-color="#65B4FF"/>
<stop offset="1" stop-color="#A9D5FF"/>
</linearGradient>
<linearGradient id="paint33_linear_41_3233" x1="305" y1="173.635" x2="305" y2="153.465" gradientUnits="userSpaceOnUse">
<stop stop-color="#A9D5FF"/>
<stop offset="1" stop-color="#88C5FF"/>
</linearGradient>
<linearGradient id="paint34_linear_41_3233" x1="352" y1="181.221" x2="352" y2="213.683" gradientUnits="userSpaceOnUse">
<stop stop-color="#65B4FF"/>
<stop offset="1" stop-color="#A9D5FF"/>
</linearGradient>
<linearGradient id="paint35_linear_41_3233" x1="352" y1="192.635" x2="352" y2="172.465" gradientUnits="userSpaceOnUse">
<stop stop-color="#A9D5FF"/>
<stop offset="1" stop-color="#88C5FF"/>
</linearGradient>
<linearGradient id="paint36_linear_41_3233" x1="412" y1="123.221" x2="412" y2="155.683" gradientUnits="userSpaceOnUse">
<stop stop-color="#65B4FF"/>
<stop offset="1" stop-color="#A9D5FF"/>
</linearGradient>
<linearGradient id="paint37_linear_41_3233" x1="412" y1="134.635" x2="412" y2="114.465" gradientUnits="userSpaceOnUse">
<stop stop-color="#A9D5FF"/>
<stop offset="1" stop-color="#88C5FF"/>
</linearGradient>
<linearGradient id="paint38_linear_41_3233" x1="358" y1="56.2207" x2="358" y2="88.6834" gradientUnits="userSpaceOnUse">
<stop stop-color="#65B4FF"/>
<stop offset="1" stop-color="#A9D5FF"/>
</linearGradient>
<linearGradient id="paint39_linear_41_3233" x1="358" y1="67.6352" x2="358" y2="47.4653" gradientUnits="userSpaceOnUse">
<stop stop-color="#A9D5FF"/>
<stop offset="1" stop-color="#88C5FF"/>
</linearGradient>
<linearGradient id="paint40_linear_41_3233" x1="331" y1="93.2207" x2="331" y2="125.683" gradientUnits="userSpaceOnUse">
<stop stop-color="#65B4FF"/>
<stop offset="1" stop-color="#A9D5FF"/>
</linearGradient>
<linearGradient id="paint41_linear_41_3233" x1="331" y1="104.635" x2="331" y2="84.4653" gradientUnits="userSpaceOnUse">
<stop stop-color="#A9D5FF"/>
<stop offset="1" stop-color="#88C5FF"/>
</linearGradient>
<linearGradient id="paint42_linear_41_3233" x1="410.035" y1="101.3" x2="399.52" y2="132.012" gradientUnits="userSpaceOnUse">
<stop stop-color="#65B4FF"/>
<stop offset="1" stop-color="#A9D5FF"/>
</linearGradient>
<linearGradient id="paint43_linear_41_3233" x1="406.338" y1="112.099" x2="412.871" y2="93.0167" gradientUnits="userSpaceOnUse">
<stop stop-color="#A9D5FF"/>
<stop offset="1" stop-color="#88C5FF"/>
</linearGradient>
<linearGradient id="paint44_linear_41_3233" x1="458" y1="154.221" x2="458" y2="186.683" gradientUnits="userSpaceOnUse">
<stop stop-color="#65B4FF"/>
<stop offset="1" stop-color="#A9D5FF"/>
</linearGradient>
<linearGradient id="paint45_linear_41_3233" x1="458" y1="165.635" x2="458" y2="145.465" gradientUnits="userSpaceOnUse">
<stop stop-color="#A9D5FF"/>
<stop offset="1" stop-color="#88C5FF"/>
</linearGradient>
<linearGradient id="paint46_linear_41_3233" x1="390" y1="164.221" x2="390" y2="196.683" gradientUnits="userSpaceOnUse">
<stop stop-color="#65B4FF"/>
<stop offset="1" stop-color="#A9D5FF"/>
</linearGradient>
<linearGradient id="paint47_linear_41_3233" x1="390" y1="175.635" x2="390" y2="155.465" gradientUnits="userSpaceOnUse">
<stop stop-color="#A9D5FF"/>
<stop offset="1" stop-color="#88C5FF"/>
</linearGradient>
<linearGradient id="paint48_linear_41_3233" x1="458" y1="188.221" x2="458" y2="220.683" gradientUnits="userSpaceOnUse">
<stop stop-color="#65B4FF"/>
<stop offset="1" stop-color="#A9D5FF"/>
</linearGradient>
<linearGradient id="paint49_linear_41_3233" x1="458" y1="199.635" x2="458" y2="179.465" gradientUnits="userSpaceOnUse">
<stop stop-color="#A9D5FF"/>
<stop offset="1" stop-color="#88C5FF"/>
</linearGradient>
<linearGradient id="paint50_linear_41_3233" x1="270.169" y1="161.897" x2="253.311" y2="189.638" gradientUnits="userSpaceOnUse">
<stop stop-color="#65B4FF"/>
<stop offset="1" stop-color="#A9D5FF"/>
</linearGradient>
<linearGradient id="paint51_linear_41_3233" x1="264.241" y1="171.651" x2="274.716" y2="154.414" gradientUnits="userSpaceOnUse">
<stop stop-color="#A9D5FF"/>
<stop offset="1" stop-color="#88C5FF"/>
</linearGradient>
<linearGradient id="paint52_linear_41_3233" x1="416.746" y1="78.6078" x2="437.986" y2="103.158" gradientUnits="userSpaceOnUse">
<stop stop-color="#65B4FF"/>
<stop offset="1" stop-color="#A9D5FF"/>
</linearGradient>
<linearGradient id="paint53_linear_41_3233" x1="424.215" y1="87.2405" x2="411.018" y2="71.9871" gradientUnits="userSpaceOnUse">
<stop stop-color="#A9D5FF"/>
<stop offset="1" stop-color="#88C5FF"/>
</linearGradient>
<linearGradient id="paint54_linear_41_3233" x1="281.5" y1="82.3223" x2="281.5" y2="115" gradientUnits="userSpaceOnUse">
<stop stop-color="#BAE40C"/>
<stop offset="1" stop-color="#E0F87D"/>
</linearGradient>
<linearGradient id="paint55_linear_41_3233" x1="281.5" y1="93.8119" x2="281.5" y2="73.5082" gradientUnits="userSpaceOnUse">
<stop stop-color="#DDF869"/>
<stop offset="1" stop-color="#DAF65D"/>
</linearGradient>
<linearGradient id="paint56_linear_41_3233" x1="379.622" y1="73.8194" x2="373.907" y2="105.994" gradientUnits="userSpaceOnUse">
<stop stop-color="#BAE40C"/>
<stop offset="1" stop-color="#E0F87D"/>
</linearGradient>
<linearGradient id="paint57_linear_41_3233" x1="377.612" y1="85.1326" x2="381.163" y2="65.1418" gradientUnits="userSpaceOnUse">
<stop stop-color="#DDF869"/>
<stop offset="1" stop-color="#DAF65D"/>
</linearGradient>
<linearGradient id="paint58_linear_41_3233" x1="118.343" y1="157.384" x2="128.358" y2="188.489" gradientUnits="userSpaceOnUse">
<stop stop-color="#BAE40C"/>
<stop offset="1" stop-color="#E0F87D"/>
</linearGradient>
<linearGradient id="paint59_linear_41_3233" x1="121.865" y1="168.321" x2="115.642" y2="148.994" gradientUnits="userSpaceOnUse">
<stop stop-color="#DDF869"/>
<stop offset="1" stop-color="#DAF65D"/>
</linearGradient>
<linearGradient id="paint60_linear_41_3233" x1="169.5" y1="113.322" x2="169.5" y2="146" gradientUnits="userSpaceOnUse">
<stop stop-color="#BAE40C"/>
<stop offset="1" stop-color="#E0F87D"/>
</linearGradient>
<linearGradient id="paint61_linear_41_3233" x1="169.5" y1="124.812" x2="169.5" y2="104.508" gradientUnits="userSpaceOnUse">
<stop stop-color="#DDF869"/>
<stop offset="1" stop-color="#DAF65D"/>
</linearGradient>
<linearGradient id="paint62_linear_41_3233" x1="238.631" y1="169.012" x2="244.522" y2="201.154" gradientUnits="userSpaceOnUse">
<stop stop-color="#BAE40C"/>
<stop offset="1" stop-color="#E0F87D"/>
</linearGradient>
<linearGradient id="paint63_linear_41_3233" x1="240.703" y1="180.314" x2="237.043" y2="160.343" gradientUnits="userSpaceOnUse">
<stop stop-color="#DDF869"/>
<stop offset="1" stop-color="#DAF65D"/>
</linearGradient>
<linearGradient id="paint64_linear_41_3233" x1="359.631" y1="134.012" x2="365.522" y2="166.154" gradientUnits="userSpaceOnUse">
<stop stop-color="#BAE40C"/>
<stop offset="1" stop-color="#E0F87D"/>
</linearGradient>
<linearGradient id="paint65_linear_41_3233" x1="361.703" y1="145.314" x2="358.043" y2="125.343" gradientUnits="userSpaceOnUse">
<stop stop-color="#DDF869"/>
<stop offset="1" stop-color="#DAF65D"/>
</linearGradient>
<linearGradient id="paint66_linear_41_3233" x1="435.969" y1="169.053" x2="429.292" y2="201.041" gradientUnits="userSpaceOnUse">
<stop stop-color="#BAE40C"/>
<stop offset="1" stop-color="#E0F87D"/>
</linearGradient>
<linearGradient id="paint67_linear_41_3233" x1="433.621" y1="180.3" x2="437.77" y2="160.424" gradientUnits="userSpaceOnUse">
<stop stop-color="#DDF869"/>
<stop offset="1" stop-color="#DAF65D"/>
</linearGradient>
<linearGradient id="paint68_linear_41_3233" x1="292.631" y1="130.012" x2="298.522" y2="162.154" gradientUnits="userSpaceOnUse">
<stop stop-color="#BAE40C"/>
<stop offset="1" stop-color="#E0F87D"/>
</linearGradient>
<linearGradient id="paint69_linear_41_3233" x1="294.703" y1="141.314" x2="291.043" y2="121.343" gradientUnits="userSpaceOnUse">
<stop stop-color="#DDF869"/>
<stop offset="1" stop-color="#DAF65D"/>
</linearGradient>
<linearGradient id="paint70_linear_41_3233" x1="210.631" y1="53.0118" x2="216.522" y2="85.1544" gradientUnits="userSpaceOnUse">
<stop stop-color="#BAE40C"/>
<stop offset="1" stop-color="#E0F87D"/>
</linearGradient>
<linearGradient id="paint71_linear_41_3233" x1="212.703" y1="64.3139" x2="209.043" y2="44.3428" gradientUnits="userSpaceOnUse">
<stop stop-color="#DDF869"/>
<stop offset="1" stop-color="#DAF65D"/>
</linearGradient>
<linearGradient id="paint72_linear_41_3233" x1="181.873" y1="76.5551" x2="196.703" y2="105.432" gradientUnits="userSpaceOnUse">
<stop stop-color="#65B4FF"/>
<stop offset="1" stop-color="#A9D5FF"/>
</linearGradient>
<linearGradient id="paint73_linear_41_3233" x1="187.088" y1="86.7086" x2="177.873" y2="68.7665" gradientUnits="userSpaceOnUse">
<stop stop-color="#A9D5FF"/>
<stop offset="1" stop-color="#88C5FF"/>
</linearGradient>
<linearGradient id="paint74_linear_41_3233" x1="310.035" y1="108.007" x2="302.863" y2="139.668" gradientUnits="userSpaceOnUse">
<stop stop-color="#65B4FF"/>
<stop offset="1" stop-color="#A9D5FF"/>
</linearGradient>
<linearGradient id="paint75_linear_41_3233" x1="307.513" y1="119.14" x2="311.969" y2="99.4681" gradientUnits="userSpaceOnUse">
<stop stop-color="#A9D5FF"/>
<stop offset="1" stop-color="#88C5FF"/>
</linearGradient>
<linearGradient id="paint76_linear_41_3233" x1="221.035" y1="136.007" x2="213.863" y2="167.668" gradientUnits="userSpaceOnUse">
<stop stop-color="#65B4FF"/>
<stop offset="1" stop-color="#A9D5FF"/>
</linearGradient>
<linearGradient id="paint77_linear_41_3233" x1="218.513" y1="147.14" x2="222.969" y2="127.468" gradientUnits="userSpaceOnUse">
<stop stop-color="#A9D5FF"/>
<stop offset="1" stop-color="#88C5FF"/>
</linearGradient>
<linearGradient id="paint78_linear_41_3233" x1="409" y1="155.221" x2="409" y2="187.683" gradientUnits="userSpaceOnUse">
<stop stop-color="#65B4FF"/>
<stop offset="1" stop-color="#A9D5FF"/>
</linearGradient>
<linearGradient id="paint79_linear_41_3233" x1="409" y1="166.635" x2="409" y2="146.465" gradientUnits="userSpaceOnUse">
<stop stop-color="#A9D5FF"/>
<stop offset="1" stop-color="#88C5FF"/>
</linearGradient>
<linearGradient id="paint80_linear_41_3233" x1="138" y1="177.221" x2="138" y2="209.683" gradientUnits="userSpaceOnUse">
<stop stop-color="#65B4FF"/>
<stop offset="1" stop-color="#A9D5FF"/>
</linearGradient>
<linearGradient id="paint81_linear_41_3233" x1="138" y1="188.635" x2="138" y2="168.465" gradientUnits="userSpaceOnUse">
<stop stop-color="#A9D5FF"/>
<stop offset="1" stop-color="#88C5FF"/>
</linearGradient>
</defs>
</svg>
