<svg width="87" height="14" viewBox="0 0 87 14" fill="none" xmlns="http://www.w3.org/2000/svg">
<path d="M0.422875 0.511999H4.96688C9.38288 0.511999 11.9429 3.104 11.9429 6.928C11.9429 10.752 9.38288 13.328 4.96688 13.328H0.422875V0.511999ZM5.01488 11.808C8.26288 11.808 10.2469 10.048 10.2469 6.928C10.2469 3.808 8.26288 2.016 5.01488 2.016H2.10288V11.808H5.01488ZM18.1893 13.552C15.5173 13.552 13.5973 11.504 13.5973 8.752C13.5973 6 15.5173 3.952 18.1893 3.952C20.8612 3.952 22.7653 6 22.7653 8.752C22.7653 8.96 22.7653 9.2 22.7333 9.424H15.2453C15.4213 10.992 16.5573 12.16 18.1893 12.16C19.4373 12.16 20.4133 11.584 20.7493 10.832H22.4293C21.9333 12.416 20.2853 13.552 18.1893 13.552ZM21.1493 8.08C20.9573 6.48 19.8373 5.344 18.1893 5.344C16.5413 5.344 15.4213 6.496 15.2453 8.08H21.1493ZM28.9065 13.552C26.3145 13.552 24.3785 11.488 24.3785 8.752C24.3785 6.016 26.3145 3.952 28.9065 3.952C30.5705 3.952 31.6905 4.752 32.1545 5.536V4.176H33.8025V13.328H32.1545V11.968C31.6905 12.752 30.5705 13.552 28.9065 13.552ZM29.0505 12.096C30.9065 12.096 32.1865 10.656 32.1865 8.752C32.1865 6.848 30.9065 5.408 29.0505 5.408C27.2105 5.408 25.9945 6.848 25.9945 8.752C25.9945 10.656 27.2105 12.096 29.0505 12.096ZM36.3898 4.176H38.0378V5.584C38.4378 4.896 39.5418 3.952 41.3338 3.952C41.8938 3.952 42.2618 4 42.5818 4.112V5.68C42.2298 5.52 41.7818 5.424 41.2218 5.424C39.3498 5.424 38.0378 6.928 38.0378 8.592V13.328H36.3898V4.176ZM48.7823 0.511999H53.3263C56.6543 0.511999 58.6063 2.288 58.6063 4.96C58.6063 7.632 56.6543 9.408 53.3263 9.408H50.4623V13.328H48.7823V0.511999ZM53.1983 7.888C55.5183 7.888 56.9263 6.864 56.9263 4.96C56.9263 3.056 55.5183 2.032 53.1983 2.032H50.4623V7.888H53.1983ZM60.3898 4.176H62.0378V5.584C62.4378 4.896 63.5418 3.952 65.3338 3.952C65.8938 3.952 66.2618 4 66.5818 4.112V5.68C66.2298 5.52 65.7818 5.424 65.2218 5.424C63.3498 5.424 62.0378 6.928 62.0378 8.592V13.328H60.3898V4.176ZM71.9415 3.952C74.6455 3.952 76.6135 6 76.6135 8.752C76.6135 11.504 74.6455 13.552 71.9415 13.552C69.2215 13.552 67.2535 11.504 67.2535 8.752C67.2535 6 69.2215 3.952 71.9415 3.952ZM71.9415 5.408C70.1175 5.408 68.8695 6.848 68.8695 8.752C68.8695 10.656 70.1175 12.096 71.9415 12.096C73.7495 12.096 74.9975 10.656 74.9975 8.752C74.9975 6.848 73.7495 5.408 71.9415 5.408ZM83.029 4.176V5.632H80.997V13.328H79.349V5.632H77.541V4.176H79.349V2.624C79.349 1.104 80.229 0.0479994 81.797 0.0479994C82.197 0.0479994 82.581 0.079999 82.869 0.143999V1.536C82.645 1.488 82.325 1.488 82.085 1.488C81.413 1.488 80.997 1.92 80.997 2.672V4.176H83.029ZM84.9078 13.536C84.2678 13.536 83.7718 13.04 83.7718 12.4C83.7718 11.76 84.2678 11.264 84.9078 11.264C85.5478 11.264 86.0278 11.76 86.0278 12.4C86.0278 13.04 85.5478 13.536 84.9078 13.536Z" fill="black"/>
</svg>
